# xmcd
#
# Track frame offsets: 
#        182
#        20000
#        39602
#        57027
#        74182
#        90147
#        106632
#        120417
#        135367
#        150057
#
# Disc length: 2233 seconds
#
# Revision: 4
# Processed by: cddbd v1.5.2PL0 Copyright (c) Steve Scherf et al.
# Submitted via: ExactAudioCopy v1.1
#
DISCID=6d08b70a
DTITLE=Jeff Carson - Real Life
DYEAR=2001
DGENRE=Country
TTITLE0=Real Life (I Never Was The Same Again)
TTITLE1=My One And Only Love
TTITLE2=Until We Fall Back In Love Again
TTITLE3=I Almost Never Loved You
TTITLE4=Shine On
TTITLE5=Where Did I Go So Right
TTITLE6=What's Not To Love
TTITLE7=Divine Intervention
TTITLE8=It Wouldn't Kill Me
TTITLE9=Scars And All
EXTD=
EXTT0=
EXTT1=
EXTT2=
EXTT3=
EXTT4=
EXTT5=
EXTT6=
EXTT7=
EXTT8=
EXTT9=
PLAYORDER=
